<?xml version="1.0" standalone="no"?>
<!DOCTYPE svg PUBLIC "-//W3C//DTD SVG 20010904//EN"
 "http://www.w3.org/TR/2001/REC-SVG-20010904/DTD/svg10.dtd">
<svg version="1.0" xmlns="http://www.w3.org/2000/svg"
 width="500.000000pt" height="500.000000pt" viewBox="0 0 500.000000 500.000000"
 preserveAspectRatio="xMidYMid meet">

<g transform="translate(0.000000,500.000000) scale(0.100000,-0.100000)"
fill="#000000" stroke="none">
<path d="M2110 3671 c-21 -21 -31 -42 -36 -80 l-7 -52 -29 28 -29 28 -349 3
c-391 3 -399 2 -426 -64 -16 -39 -16 -40 55 -302 22 -84 41 -158 41 -163 0 -5
-34 -9 -75 -9 -48 0 -87 -6 -105 -15 -61 -31 -60 -24 -60 -590 0 -361 3 -523
11 -538 31 -61 77 -69 214 -37 118 28 125 27 125 -11 0 -17 12 -52 26 -78 l25
-47 -40 -41 c-34 -34 -41 -47 -41 -81 0 -71 104 -180 194 -203 29 -7 48 -20
65 -44 82 -120 275 -88 322 52 16 51 -3 134 -43 178 -34 40 -31 52 18 61 39 7
53 -4 79 -63 8 -17 26 -41 41 -52 49 -38 83 -29 256 70 l160 91 56 -35 c31
-19 103 -59 158 -91 147 -81 184 -76 243 29 33 58 48 65 96 43 28 -13 32 -26
10 -35 -22 -8 -54 -75 -61 -127 -17 -122 87 -212 219 -191 32 6 53 18 89 56
30 31 61 52 86 58 90 25 192 133 192 204 0 34 -6 46 -41 79 l-40 39 25 51 c14
29 26 68 26 89 l0 37 89 4 c76 3 95 8 131 32 52 34 95 102 112 175 18 80 18
586 -1 661 -29 117 -101 204 -193 232 -21 6 -38 14 -38 19 0 7 82 318 100 379
27 93 -1 162 -71 175 -19 3 -183 5 -366 3 l-332 -3 -29 -28 -30 -28 -6 38 c-4
21 -12 51 -18 66 -22 55 -35 57 -418 57 l-352 0 -28 -29z m719 -98 c23 -183
60 -319 90 -337 35 -22 73 62 99 223 l18 106 309 3 c170 1 312 -1 316 -5 5 -5
-10 -76 -32 -158 -23 -83 -49 -179 -58 -215 l-18 -65 -1054 -3 -1054 -2 -24
92 c-13 51 -39 148 -57 215 -19 67 -34 126 -34 132 0 17 630 15 634 -1 2 -7
11 -60 20 -117 17 -113 55 -211 80 -211 41 0 79 132 111 388 l7 52 317 0 318
0 12 -97z m-39 -546 l65 -12 3 -123 3 -122 -204 0 c-144 0 -206 -3 -215 -12
-8 -8 -12 -57 -12 -155 l0 -143 26 -10 c14 -6 41 -10 60 -10 l34 0 0 120 0
120 160 -2 160 -3 6 -232 c6 -219 5 -231 -12 -236 -50 -14 -254 -31 -384 -31
-232 0 -317 30 -367 131 -28 57 -28 61 -31 270 -4 231 4 285 51 354 27 40 91
78 162 95 66 16 410 17 495 1z m809 -19 c94 -14 147 -51 176 -123 19 -46 20
-72 20 -360 0 -290 -1 -313 -20 -349 -35 -69 -62 -81 -178 -80 -56 0 -147 8
-202 17 -55 10 -172 26 -260 35 l-160 18 -6 224 c-9 311 -10 625 -3 633 10 10
554 -3 633 -15z m-1730 -3 c67 -23 102 -54 129 -114 22 -48 27 -73 30 -179 6
-183 -20 -285 -90 -348 -37 -34 -131 -63 -263 -81 l-124 -17 -3 -81 -3 -80
-45 -9 c-25 -5 -101 -21 -170 -37 -69 -15 -128 -25 -132 -23 -5 3 -8 225 -8
495 l0 489 319 0 c255 0 327 -3 360 -15z m151 -817 c0 -5 9 -23 21 -39 23 -33
29 -29 -81 -55 -102 -23 -227 -70 -273 -101 -20 -14 -39 -24 -41 -22 -2 2 -1
33 3 69 l6 65 81 11 c103 15 178 37 229 68 39 24 55 25 55 4z m260 -130 c68
-23 134 -74 171 -135 18 -29 19 -37 8 -44 -52 -33 -298 -169 -306 -169 -6 0
-16 13 -22 29 -16 37 -83 105 -146 147 -48 32 -178 84 -210 84 -29 0 -15 17
33 39 147 69 351 90 472 49z m820 -17 c112 -37 152 -57 130 -65 -8 -3 -44 -15
-80 -27 -36 -12 -88 -34 -116 -50 -63 -35 -146 -116 -164 -159 -9 -22 -18 -30
-31 -27 -36 10 -309 171 -309 183 0 19 99 123 134 141 69 36 109 43 226 39 95
-3 131 -9 210 -35z m-582 -53 c-3 -7 -11 -13 -18 -13 -7 0 -15 6 -17 13 -3 7
4 12 17 12 13 0 20 -5 18 -12z m-855 -54 c111 23 152 15 257 -52 l55 -35 -53
-15 c-32 -9 -69 -29 -95 -52 -41 -37 -42 -40 -42 -99 0 -49 4 -65 22 -83 22
-21 23 -21 43 -3 25 23 31 17 37 -38 5 -38 2 -47 -18 -61 -58 -40 -127 -7
-148 72 -11 39 -12 40 -39 30 -16 -6 -41 -8 -55 -4 -30 7 -107 72 -107 89 0 6
27 38 60 73 33 34 60 66 60 71 0 4 -16 18 -35 30 -37 25 -70 77 -61 99 4 11
13 10 46 -7 29 -15 49 -19 73 -15z m1787 8 c0 -27 -29 -66 -71 -96 l-22 -15
26 -40 c14 -22 42 -52 62 -66 19 -15 35 -33 35 -40 0 -18 -75 -83 -105 -91
-14 -3 -40 -3 -59 0 -32 6 -34 5 -40 -27 -3 -18 -19 -46 -35 -61 -38 -36 -94
-34 -124 5 -17 24 -18 31 -7 63 13 41 15 42 36 21 9 -8 20 -15 24 -15 20 0 44
54 44 100 0 76 -37 117 -136 151 l-50 17 45 31 c100 68 152 79 263 56 22 -5
43 -1 70 14 22 11 40 20 42 21 1 0 2 -12 2 -28z"/>
<path d="M3320 2575 l0 -175 33 -2 c56 -3 80 1 89 14 9 15 11 262 2 295 -7 24
-49 43 -95 43 l-29 0 0 -175z"/>
<path d="M1563 2733 c-9 -3 -13 -32 -13 -95 l0 -91 52 7 c28 4 55 9 60 12 4 3
8 40 8 84 0 62 -3 79 -16 84 -18 7 -73 7 -91 -1z"/>
</g>
</svg>
